{
  "accessors": [
    {
      "bufferView": 2,
      "componentType": 5126,
      "count": 7878,
      "max": [
        1.3196372985839844,
        4.165308952331543,
        7.590786457061768
      ],
      "min": [
        -0.9601171612739563,
        -2.7301526069641113,
        -9.628998756408691
      ],
      "type": "VEC3"
    },
    {
      "bufferView": 2,
      "byteOffset": 94536,
      "componentType": 5126,
      "count": 7878,
      "max": [
        1.0,
        1.0,
        1.0
      ],
      "min": [
        -1.0,
        -1.0,
        -1.0
      ],
      "type": "VEC3"
    },
    {
      "bufferView": 1,
      "componentType": 5126,
      "count": 7878,
      "max": [
        0.9912868142127991,
        1.3647658824920654
      ],
      "min": [
        -0.06865251064300537,
        0.009332209825515747
      ],
      "type": "VEC2"
    },
    {
      "bufferView": 0,
      "componentType": 5125,
      "count": 36612,
      "type": "SCALAR"
    },
    {
      "bufferView": 2,
      "byteOffset": 189072,
      "componentType": 5126,
      "count": 8426,
      "max": [
        1.346439003944397,
        4.194845676422119,
        7.620786666870117
      ],
      "min": [
        -0.9901087880134583,
        -2.7585010528564453,
        -8.101480484008789
      ],
      "type": "VEC3"
    },
    {
      "bufferView": 2,
      "byteOffset": 290184,
      "componentType": 5126,
      "count": 8426,
      "max": [
        1.0,
        1.0,
        1.0
      ],
      "min": [
        -1.0,
        -1.0,
        -1.0
      ],
      "type": "VEC3"
    },
    {
      "bufferView": 1,
      "byteOffset": 63024,
      "componentType": 5126,
      "count": 8426,
      "max": [
        0.9912868142127991,
        1.3647658824920654
      ],
      "min": [
        -0.06865251064300537,
        0.009332209825515747
      ],
      "type": "VEC2"
    },
    {
      "bufferView": 0,
      "byteOffset": 146448,
      "componentType": 5125,
      "count": 39768,
      "type": "SCALAR"
    },
    {
      "bufferView": 2,
      "byteOffset": 391296,
      "componentType": 5126,
      "count": 126,
      "max": [
        1.1580896377563477,
        4.792562961578369,
        1.1580896377563477
      ],
      "min": [
        -1.1580896377563477,
        -1.3385720252990723,
        -1.158096432685852
      ],
      "type": "VEC3"
    },
    {
      "bufferView": 2,
      "byteOffset": 392808,
      "componentType": 5126,
      "count": 126,
      "max": [
        0.9915208220481873,
        1.0,
        0.9915247559547424
      ],
      "min": [
        -0.9915208220481873,
        -1.0,
        -0.9915168285369873
      ],
      "type": "VEC3"
    },
    {
      "bufferView": 1,
      "byteOffset": 130432,
      "componentType": 5126,
      "count": 126,
      "max": [
        1.0,
        1.0
      ],
      "min": [
        7.450580596923828e-08,
        0.01000000536441803
      ],
      "type": "VEC2"
    },
    {
      "bufferView": 0,
      "byteOffset": 305520,
      "componentType": 5125,
      "count": 504,
      "type": "SCALAR"
    }
  ],
  "asset": {
    "extras": {
      "author": "zebra_pozer (https://sketchfab.com/zebra_pozer)",
      "license": "CC-BY-4.0 (http://creativecommons.org/licenses/by/4.0/)",
      "source": "https://sketchfab.com/3d-models/cartoon-rifle-0750b5d2ad414d089ce53da7105f0e0d",
      "title": "Cartoon Rifle"
    },
    "generator": "Sketchfab-12.68.0",
    "version": "2.0"
  },
  "bufferViews": [
    {
      "buffer": 0,
      "byteLength": 307536,
      "name": "floatBufferViews",
      "target": 34963
    },
    {
      "buffer": 0,
      "byteLength": 131440,
      "byteOffset": 307536,
      "byteStride": 8,
      "name": "floatBufferViews",
      "target": 34962
    },
    {
      "buffer": 0,
      "byteLength": 394320,
      "byteOffset": 438976,
      "byteStride": 12,
      "name": "floatBufferViews",
      "target": 34962
    }
  ],
  "buffers": [
    {
      "byteLength": 833296,
      "uri": "scene.bin"
    }
  ],
  "extensionsUsed": [
    "KHR_materials_unlit"
  ],
  "images": [
    {
      "uri": "textures/material_0_baseColor.png"
    },
    {
      "uri": "textures/material_0_emissive.png"
    },
    {
      "uri": "textures/material_baseColor.png"
    },
    {
      "uri": "textures/shading_baseColor.png"
    }
  ],
  "materials": [
    {
      "alphaMode": "BLEND",
      "doubleSided": true,
      "emissiveFactor": [
        1.0,
        1.0,
        1.0
      ],
      "emissiveTexture": {
        "index": 1
      },
      "extensions": {
        "KHR_materials_unlit": {}
      },
      "name": "material_0",
      "pbrMetallicRoughness": {
        "baseColorFactor": [
          1.0,
          1.0,
          1.0,
          0.0
        ],
        "baseColorTexture": {
          "index": 0
        },
        "metallicFactor": 0.0
      }
    },
    {
      "alphaMode": "BLEND",
      "doubleSided": true,
      "emissiveFactor": [
        1.0,
        1.0,
        1.0
      ],
      "emissiveTexture": {
        "index": 1
      },
      "extensions": {
        "KHR_materials_unlit": {}
      },
      "name": "material",
      "pbrMetallicRoughness": {
        "baseColorTexture": {
          "index": 2
        },
        "metallicFactor": 0.0
      }
    },
    {
      "extensions": {
        "KHR_materials_unlit": {}
      },
      "name": "shading",
      "pbrMetallicRoughness": {
        "baseColorTexture": {
          "index": 3
        },
        "metallicFactor": 0.0
      }
    }
  ],
  "meshes": [
    {
      "name": "Object_0",
      "primitives": [
        {
          "attributes": {
            "NORMAL": 1,
            "POSITION": 0,
            "TEXCOORD_0": 2
          },
          "indices": 3,
          "material": 1,
          "mode": 4
        }
      ]
    },
    {
      "name": "Object_1",
      "primitives": [
        {
          "attributes": {
            "NORMAL": 5,
            "POSITION": 4,
            "TEXCOORD_0": 6
          },
          "indices": 7,
          "material": 2,
          "mode": 4
        }
      ]
    },
    {
      "name": "Object_2",
      "primitives": [
        {
          "attributes": {
            "NORMAL": 9,
            "POSITION": 8,
            "TEXCOORD_0": 10
          },
          "indices": 11,
          "material": 0,
          "mode": 4
        }
      ]
    }
  ],
  "nodes": [
    {
      "children": [
        1
      ],
      "matrix": [
        1.0,
        0.0,
        0.0,
        0.0,
        0.0,
        2.220446049250313e-16,
        -1.0,
        0.0,
        0.0,
        1.0,
        2.220446049250313e-16,
        0.0,
        0.0,
        0.0,
        0.0,
        1.0
      ],
      "name": "Sketchfab_model"
    },
    {
      "children": [
        2
      ],
      "name": "root"
    },
    {
      "children": [
        3,
        5,
        7
      ],
      "matrix": [
        1.0,
        0.0,
        0.0,
        0.0,
        0.0,
        2.220446049250313e-16,
        1.0,
        0.0,
        0.0,
        -1.0,
        2.220446049250313e-16,
        0.0,
        0.0,
        0.0,
        0.0,
        1.0
      ],
      "name": "GLTF_SceneRootNode"
    },
    {
      "children": [
        4
      ],
      "matrix": [
        1.0,
        0.0,
        0.0,
        0.0,
        0.0,
        1.0,
        0.0,
        0.0,
        0.0,
        0.0,
        1.0,
        0.0,
        3.1035799980163574,
        0.0,
        0.0,
        1.0
      ],
      "name": "guN_0"
    },
    {
      "mesh": 0,
      "name": "Object_4"
    },
    {
      "children": [
        6
      ],
      "matrix": [
        1.0,
        0.0,
        0.0,
        0.0,
        0.0,
        1.0,
        0.0,
        0.0,
        0.0,
        0.0,
        1.0,
        0.0,
        3.1035799980163574,
        0.0,
        0.0,
        1.0
      ],
      "name": "ChellShading_1"
    },
    {
      "mesh": 1,
      "name": "Object_6"
    },
    {
      "children": [
        8
      ],
      "matrix": [
        0.15975120906386364,
        -0.0023627004790560406,
        -0.00533072783035115,
        0.0,
        0.002024643504793833,
        0.19890762688173005,
        -0.027485908523226698,
        0.0,
        0.00560368049413753,
        0.02181245850858269,
        0.15826327188849681,
        0.0,
        0.6112532019615173,
        2.3154823780059814,
        5.482263565063477,
        1.0
      ],
      "name": "Cylinder.036_2"
    },
    {
      "mesh": 2,
      "name": "Object_8"
    }
  ],
  "samplers": [
    {
      "magFilter": 9729,
      "minFilter": 9987,
      "wrapS": 10497,
      "wrapT": 10497
    }
  ],
  "scene": 0,
  "scenes": [
    {
      "name": "Sketchfab_Scene",
      "nodes": [
        0
      ]
    }
  ],
  "textures": [
    {
      "sampler": 0,
      "source": 0
    },
    {
      "sampler": 0,
      "source": 1
    },
    {
      "sampler": 0,
      "source": 2
    },
    {
      "sampler": 0,
      "source": 3
    }
  ]
}
